<?xml version="1.0" encoding="utf-8"?>
<!-- Generator: Adobe Illustrator 16.0.0, SVG Export Plug-In . SVG Version: 6.00 Build 0)  -->
<!DOCTYPE svg PUBLIC "-//W3C//DTD SVG 1.1//EN" "http://www.w3.org/Graphics/SVG/1.1/DTD/svg11.dtd">
<svg version="1.1" id="Layer_1" xmlns="http://www.w3.org/2000/svg" xmlns:xlink="http://www.w3.org/1999/xlink" x="0px" y="0px"
	 width="100px" height="100px" viewBox="247.64 370.945 100 100" enable-background="new 247.64 370.945 100 100"
	 xml:space="preserve">
<g>
	<rect x="247.642" y="370.944" fill="#BECBD8" width="100" height="100"/>
	<path fill="#FFFFFF" d="M327.298,453.52c0,0-11.648-3.764-11.432-6.873c0,0-3.616-0.795-4.269-0.867c0,0-2.025-2.752-1.591-13.24
		c0,0,8.03-3.545,10.272-3.979l-0.578-1.014c0,0,2.938-0.508,2.938-0.508c-1.142,0.197-2.553-4.033-2.761-4.605
		c-2.003-5.525-2.325-11.57-2.867-17.369c-0.353-3.781-0.498-7.734-1.217-11.469c-1.335-6.924-3.606-12.027-10.528-14.643
		c-2.416-0.914-5.054-1.26-7.627-1.322c-2.573,0.064-4.714,0.408-7.13,1.322c-0.086,0.031-0.163,0.07-0.248,0.104
		c-0.084,1.389-0.1,2.518-0.1,2.518l-1.533-2.031c-5.847,2.754-7.903,7.615-9.145,14.055c-0.72,3.732-0.863,7.686-1.217,11.469
		c-0.542,5.799-0.863,11.844-2.867,17.367c-0.208,0.574-1.619,4.805-2.761,4.607c0.002,0,2.939,0.506,2.939,0.506L275,428.561
		c2.242,0.436,10.272,3.979,10.272,3.979c0.435,10.49-1.591,13.24-1.591,13.24c-0.651,0.074-4.269,0.869-4.269,0.869
		c0.217,3.109-11.432,6.873-11.432,6.873c-23.658,7.09-20.162,17.424-20.162,17.424h49.818h49.818
		C347.46,470.944,350.956,460.612,327.298,453.52z"/>
</g>
</svg>
