<?xml version="1.0" encoding="utf-8"?>
<!-- Generator: Adobe Illustrator 16.0.0, SVG Export Plug-In . SVG Version: 6.00 Build 0)  -->
<!DOCTYPE svg PUBLIC "-//W3C//DTD SVG 1.1//EN" "http://www.w3.org/Graphics/SVG/1.1/DTD/svg11.dtd">
<svg version="1.1" id="Layer_1" xmlns="http://www.w3.org/2000/svg" xmlns:xlink="http://www.w3.org/1999/xlink" x="0px" y="0px"
	 width="100px" height="100px" viewBox="247.64 370.945 100 100" enable-background="new 247.64 370.945 100 100"
	 xml:space="preserve">
<g>
	<rect x="247.64" y="370.945" fill="#BECBD8" width="100" height="100"/>
	<path fill="#FFFFFF" d="M297.453,470.945H247.64v-5.756c0,0,24.594-11.4,30.222-13.133c0,0,1.3-8.514,4.186-8.514v-9.814
		c0,0-3.03-0.721-4.618-11.256c0,0-2.454-0.002-2.454-11.834h1.587c0,0,0-17.162,0-17.173c0-9.27,10.099-13.962,17.644-16.262
		c2.881-0.878,5.97-1.361,8.956-1.706c0.418-0.048,6.706-0.832,6.684-0.016c-0.004,0.159-0.258,0.416-0.366,0.52
		c-3.896,2.309-1.299,3.752-1.299,3.752c10.54,6.524,10.534,13.71,10.534,13.71v17.173h1.588c0,11.833-2.453,11.834-2.453,11.834
		c-1.588,10.535-4.618,11.256-4.618,11.256v9.814c2.887,0,4.187,8.514,4.187,8.514c5.628,1.732,30.222,13.133,30.222,13.133v5.756
		h-49.813"/>
</g>
</svg>
